<svg xmlns="http://www.w3.org/2000/svg" version="1.0" viewBox="0 0 135 135">
  <defs>
    <clipPath id="a">
      <path d="M.496 0h134.008v134.008H.496Zm0 0"/>
    </clipPath>
  </defs>
  <g clip-path="url(#a)">
    <path fill="#457b9d" d="M.496 0h134.008v134.008H.496Zm0 0"/>
  </g>
  <path fill="#fff" d="M25.79 57.335c4.945 0 8.859 1.234 11.734 3.703s4.312 6 4.312 10.594H31.602c0-1.938-.512-3.473-1.532-4.61-1.011-1.132-2.453-1.703-4.328-1.703-2.168 0-3.761.684-4.78 2.047-1.013 1.356-1.517 3.246-1.517 5.672v3.094c0 2.398.504 4.281 1.516 5.656 1.02 1.367 2.582 2.047 4.688 2.047 2.062 0 3.625-.531 4.687-1.594 1.07-1.062 1.61-2.562 1.61-4.5h9.89c0 4.555-1.402 8.043-4.203 10.469-2.793 2.418-6.742 3.625-11.844 3.625-5.687 0-9.996-1.453-12.922-4.36-2.918-2.906-4.375-7.203-4.375-12.89 0-5.688 1.457-9.985 4.375-12.89 2.926-2.907 7.235-4.36 12.922-4.36ZM75.515 91.257V79.24c0-1.488.055-3.016.172-4.578.113-1.57.234-2.89.36-3.953.124-1.07.202-1.754.234-2.047h-.188l-6.156 22.594h-8.39l-6.204-22.532h-.187c.03.282.117.95.265 2 .145 1.055.282 2.368.407 3.938.132 1.562.203 3.09.203 4.578v12.016h-9.844V57.913h15.125l5.047 19.234h.187l4.985-19.234h14.593v33.344ZM108.457 57.335c5.758 0 10.204 1.469 13.329 4.406 3.132 2.938 4.703 7.219 4.703 12.844 0 5.625-1.57 9.906-4.703 12.844-3.125 2.937-7.57 4.406-13.329 4.406-5.75 0-10.183-1.457-13.296-4.375-3.118-2.926-4.672-7.219-4.672-12.875s1.554-9.942 4.672-12.86c3.113-2.925 7.546-4.39 13.296-4.39Zm0 7.984c-2.293 0-4.039.7-5.234 2.094-1.187 1.387-1.781 3.262-1.781 5.625v3.094c0 2.367.594 4.242 1.781 5.625 1.195 1.386 2.941 2.078 5.234 2.078 2.301 0 4.055-.692 5.266-2.078 1.207-1.383 1.813-3.258 1.813-5.625v-3.094c0-2.363-.606-4.238-1.813-5.625-1.21-1.395-2.965-2.094-5.266-2.094ZM16.307 37.352c1.457 0 2.648.297 3.578.89.938.587 1.414 1.454 1.438 2.61v.188h-3.407v-.063c0-.332-.125-.61-.375-.828-.242-.219-.605-.328-1.093-.328-.493 0-.868.074-1.125.219-.25.148-.375.324-.375.53 0 .294.171.513.515.657.352.149.922.293 1.703.438.914.187 1.664.386 2.25.593.594.2 1.11.532 1.547 1 .438.461.66 1.086.672 1.875 0 1.344-.453 2.344-1.36 3-.906.649-2.12.97-3.64.97-1.773 0-3.152-.298-4.14-.892-.981-.593-1.47-1.644-1.47-3.156h3.454c0 .574.144.961.437 1.156.301.188.766.282 1.391.282.469 0 .852-.047 1.156-.14.301-.102.453-.313.453-.626 0-.27-.172-.473-.515-.61-.336-.144-.883-.288-1.64-.437-.919-.195-1.68-.406-2.282-.625a4.005 4.005 0 0 1-1.594-1.062c-.45-.5-.672-1.172-.672-2.016 0-1.238.477-2.148 1.438-2.734.968-.594 2.187-.89 3.656-.89ZM27.483 39.993c1.594 0 2.805.375 3.641 1.125.844.742 1.266 1.883 1.266 3.422v.562h-6.532c0 .625.141 1.102.422 1.422.281.324.723.484 1.328.484.551 0 .957-.113 1.22-.343.257-.239.39-.551.39-.938h3.172c0 1.063-.403 1.89-1.204 2.484-.804.594-1.976.891-3.515.891-1.617 0-2.871-.375-3.766-1.125-.886-.758-1.328-1.906-1.328-3.437 0-1.489.43-2.618 1.297-3.391.875-.77 2.078-1.156 3.61-1.156Zm.125 2.093c-1.03 0-1.609.493-1.734 1.47h3.203c0-.446-.133-.802-.39-1.063-.262-.27-.622-.407-1.079-.407ZM39.737 39.993c1.008 0 1.766.28 2.266.843.507.555.765 1.36.765 2.422v5.64h-3.281v-5.25c0-.374-.102-.67-.297-.89-.187-.226-.46-.343-.812-.343-.407 0-.735.136-.985.406a1.35 1.35 0 0 0-.375.969v5.109h-3.297V40.18h2.688l.219 1.328c.343-.457.789-.82 1.343-1.093a3.89 3.89 0 0 1 1.766-.422ZM44.6 39.165V36.93h3.281v2.235Zm0 9.734V40.18h3.281V48.9ZM54.236 39.993c1.52 0 2.718.39 3.593 1.172.875.773 1.313 1.898 1.313 3.375 0 1.492-.438 2.625-1.313 3.406-.875.773-2.074 1.156-3.593 1.156-1.532 0-2.735-.383-3.61-1.156-.867-.77-1.297-1.906-1.297-3.406 0-1.489.43-2.618 1.297-3.391.875-.77 2.078-1.156 3.61-1.156Zm0 2.218c-1.086 0-1.625.625-1.625 1.875v.938c0 1.23.539 1.844 1.625 1.844 1.082 0 1.625-.614 1.625-1.844v-.938c0-1.25-.543-1.875-1.625-1.875ZM65.77 39.977c.258 0 .489.031.688.094.195.055.297.086.297.094v2.765h-1.063c-.68 0-1.168.18-1.468.531-.305.344-.454.868-.454 1.563v3.875h-3.296V40.18h2.687l.219 1.328c.195-.507.508-.89.937-1.14.438-.258.922-.39 1.453-.39ZM73.028 37.54h3.657v8.453h5.812v2.906h-9.469ZM83.673 39.165V36.93h3.281v2.235Zm0 9.734V40.18h3.281V48.9ZM91.105 48.899l-3.297-8.719h3.532l1.593 5.438h.125l1.594-5.438h3.234L94.558 48.9ZM98.748 39.165V36.93h3.28v2.235Zm0 9.734V40.18h3.28V48.9ZM109.883 39.993c1.008 0 1.766.28 2.266.843.508.555.765 1.36.765 2.422v5.64h-3.28v-5.25c0-.374-.102-.67-.298-.89-.187-.226-.46-.343-.812-.343-.406 0-.735.136-.985.406a1.35 1.35 0 0 0-.375.969v5.109h-3.296V40.18h2.687l.219 1.328c.344-.457.789-.82 1.344-1.093a3.89 3.89 0 0 1 1.765-.422ZM124.434 38.555c0 .668-.172 1.184-.516 1.547-.336.367-.836.637-1.5.813.313.242.555.523.734.843.188.325.282.668.282 1.032 0 .93-.352 1.632-1.047 2.109-.7.469-1.57.703-2.61.703h-1.25c-.699 0-1.046.156-1.046.469 0 .156.078.281.234.375.156.094.426.14.812.14h2.97c.968 0 1.695.258 2.187.766.5.5.75 1.18.75 2.031 0 .625-.168 1.16-.5 1.61a3.127 3.127 0 0 1-1.344 1.015 4.584 4.584 0 0 1-1.828.36h-4.844c-.398 0-.766-.094-1.11-.282a2.143 2.143 0 0 1-.796-.765 2.017 2.017 0 0 1-.297-1.078c0-.438.129-.828.39-1.172.27-.344.602-.602 1-.781a2.22 2.22 0 0 1-.624-.672 1.683 1.683 0 0 1-.235-.86c0-.425.156-.812.469-1.156.32-.351.723-.594 1.203-.719a3.642 3.642 0 0 1-1.031-.937 1.98 1.98 0 0 1-.375-1.14c0-1.009.406-1.727 1.219-2.157.82-.438 1.91-.656 3.265-.656.594 0 1.07.03 1.438.093.539-.343.89-.648 1.047-.921.156-.282.234-.485.234-.61Zm-5.469 3.156c-.367 0-.664.094-.89.282-.231.18-.344.445-.344.797 0 .367.101.64.312.828.219.18.524.265.922.265.395 0 .703-.086.922-.265.226-.188.344-.461.344-.828 0-.364-.118-.633-.344-.813-.219-.176-.527-.266-.922-.266Zm-1.266 7.188c-.261 0-.468.066-.625.203-.156.133-.234.332-.234.594 0 .25.082.453.25.61a.85.85 0 0 0 .61.234h2.577a.863.863 0 0 0 .61-.235.76.76 0 0 0 .25-.594c0-.261-.086-.464-.25-.609-.156-.137-.36-.203-.61-.203Zm0 0"/>
</svg>
